<svg xmlns="http://www.w3.org/2000/svg" viewBox="0 0 300 300" width="300" height="300">
  <defs>
    <filter id="ig">
      <feGaussianBlur stdDeviation="2.5" result="blur"/>
      <feMerge>
        <feMergeNode in="blur"/>
        <feMergeNode in="SourceGraphic"/>
      </feMerge>
    </filter>
  </defs>
  
  <rect width="300" height="300" rx="24" fill="#0c0a1a"/>
  
  <g transform="translate(150, 150)">
    <g filter="url(#ig)">
      <path d="M 0 0 Q -30 -25 -50 -60 Q -55 -70 -45 -75" fill="none" stroke="#6366f1" stroke-width="6" stroke-linecap="round"/>
      <path d="M -45 -75 Q -35 -78 -25 -65 Q -15 -50 -30 -40" fill="none" stroke="#6366f1" stroke-width="4" stroke-linecap="round" opacity="0.5"/>
      
      <path d="M 0 0 Q 35 -10 60 -25 Q 75 -35 78 -25" fill="none" stroke="#6366f1" stroke-width="6" stroke-linecap="round"/>
      <path d="M 78 -25 Q 80 -15 65 -5 Q 50 5 55 20" fill="none" stroke="#6366f1" stroke-width="4" stroke-linecap="round" opacity="0.5"/>
      
      <path d="M 0 0 Q -20 30 -15 60 Q -12 75 -25 78" fill="none" stroke="#6366f1" stroke-width="6" stroke-linecap="round"/>
      <path d="M -25 78 Q -35 80 -40 65 Q -45 50 -55 55" fill="none" stroke="#6366f1" stroke-width="4" stroke-linecap="round" opacity="0.5"/>
    </g>
    
    <circle cx="0" cy="0" r="10" fill="#1e1b4b" stroke="#f59e0b" stroke-width="3"/>
    <circle cx="0" cy="0" r="5" fill="#f59e0b" opacity="0.7"/>
    
    <circle cx="-60" cy="-55" r="3" fill="#6366f1" filter="url(#ig)" opacity="0.5"/>
    <circle cx="70" cy="15" r="3" fill="#6366f1" filter="url(#ig)" opacity="0.5"/>
    <circle cx="-50" cy="70" r="2.5" fill="#6366f1" filter="url(#ig)" opacity="0.4"/>
  </g>
</svg>
